<svg xmlns="http://www.w3.org/2000/svg" version="1.1" xmlns:xlink="http://www.w3.org/1999/xlink" xmlns:svgjs="http://svgjs.dev/svgjs" width="1500" height="424" viewBox="0 0 1500 424"><g transform="matrix(1,0,0,1,-0.9090909089542265,-0.5540535414320686)"><svg viewBox="0 0 396 112" data-background-color="#dedede" preserveAspectRatio="xMidYMid meet" height="424" width="1500" xmlns="http://www.w3.org/2000/svg" xmlns:xlink="http://www.w3.org/1999/xlink"><g id="tight-bounds" transform="matrix(1,0,0,1,0.23999999996391352,0.14635376566130276)"><svg viewBox="0 0 395.52 111.70729246867738" height="111.70729246867738" width="395.52"><g><svg viewBox="0 0 636.0037014749121 179.6274562394301" height="111.70729246867738" width="395.52"><g transform="matrix(1,0,0,1,240.48370147491204,55.50749125198585)"><svg viewBox="0 0 395.52 68.61247373545841" height="68.61247373545841" width="395.52"><g id="textblocktransform"><svg viewBox="0 0 395.52 68.61247373545841" height="68.61247373545841" width="395.52" id="textblock"><g><svg viewBox="0 0 395.52 68.61247373545841" height="68.61247373545841" width="395.52"><g transform="matrix(1,0,0,1,0,0)"><svg width="395.52" viewBox="1.27 -32.52 190.53692307686697 33.06" height="68.61247373545841" data-palette-color="#163020"><path d="M5.08-6.64L5.08-25.49Q5.08-28.42 4.69-29.59L4.69-29.59Q4.49-29.98 3.32-30.35 2.15-30.71 1.56-30.71L1.56-30.71Q1.37-30.71 1.37-31.45L1.37-31.45Q1.37-32.23 1.46-32.32L1.46-32.32Q1.71-32.32 4.17-32.18 6.64-32.03 7.96-32.03L7.96-32.03Q8.35-32.03 14.21-32.32L14.21-32.32Q14.36-31.88 14.36-31.54L14.36-31.54Q14.36-30.71 14.16-30.71L14.16-30.71Q13.72-30.71 12.4-30.32 11.08-29.93 10.99-29.59L10.99-29.59Q10.6-28.08 10.6-25.29L10.6-25.29 10.6-6.93Q10.6-4.25 11.04-2.54L11.04-2.54Q11.13-2.2 12.38-1.83 13.62-1.46 14.06-1.46L14.06-1.46Q14.26-1.46 14.26-0.54L14.26-0.54Q14.26-0.15 14.16 0.15L14.16 0.15Q8.3-0.15 7.96-0.15L7.96-0.15Q6.98-0.15 5.91-0.1 4.83-0.05 3.54 0.02 2.25 0.1 1.46 0.15L1.46 0.15Q1.27-0.05 1.27-0.54L1.27-0.54Q1.27-1.46 1.46-1.46L1.46-1.46Q2.05-1.46 3.3-1.81 4.54-2.15 4.69-2.54L4.69-2.54Q5.08-4.05 5.08-6.64L5.08-6.64ZM35.1-18.51L35.1-18.51Q34.47-19.82 31.69-19.82L31.69-19.82Q31.54-19.82 31.54-20.51 31.54-21.19 31.69-21.39L31.69-21.39Q32.37-21.39 34.06-21.24 35.74-21.09 36.84-21.09 37.94-21.09 39.69-21.24 41.45-21.39 42.09-21.39L42.09-21.39Q42.23-21.19 42.23-20.61L42.23-20.61Q42.23-19.82 41.94-19.82L41.94-19.82Q41.26-19.82 40.04-19.36 38.82-18.9 38.38-17.97L38.38-17.97 30.22-0.73Q30.03-0.34 29.59 0.1 29.15 0.54 28.76 0.54L28.76 0.54Q28.27 0.54 28.17 0.24L28.17 0.24Q27.19-1.95 25.51-5.83 23.83-9.72 22.6-12.4 21.38-15.09 19.82-18.46L19.82-18.46Q19.24-19.82 16.65-19.82L16.65-19.82Q16.45-19.82 16.45-20.61L16.45-20.61Q16.45-21.19 16.65-21.39L16.65-21.39Q17.09-21.39 19.24-21.24 21.38-21.09 22.56-21.09 23.73-21.09 25.93-21.24 28.12-21.39 28.46-21.39L28.46-21.39Q28.61-21.19 28.59-20.51 28.56-19.82 28.37-19.82L28.37-19.82Q27.73-19.82 26.63-19.53 25.53-19.24 25.53-18.75L25.53-18.75Q25.53-18.41 25.63-18.26L25.63-18.26 30.47-7.03 34.86-16.7Q35.45-17.97 35.1-18.51ZM48.04-27.37Q47.16-28.27 47.16-29.52 47.16-30.76 48.04-31.64 48.92-32.52 50.19-32.52 51.46-32.52 52.34-31.64 53.22-30.76 53.22-29.52 53.22-28.27 52.34-27.37 51.46-26.46 50.19-26.46 48.92-26.46 48.04-27.37ZM53.12-16.31L53.12-6.93Q53.12-3.96 53.51-2.54L53.51-2.54Q53.61-2.2 54.83-1.83 56.05-1.46 56.49-1.46L56.49-1.46Q56.68-1.46 56.71-0.76 56.73-0.05 56.64 0.2L56.64 0.2Q56.29 0.15 54.02 0 51.75-0.15 50.68-0.15L50.68-0.15Q49.46-0.15 47.24 0 45.01 0.15 44.67 0.2L44.67 0.2Q44.48 0 44.48-0.73 44.48-1.46 44.67-1.46L44.67-1.46Q45.21-1.46 46.43-1.83 47.65-2.2 47.75-2.54L47.75-2.54Q48.09-4 48.09-6.1L48.09-6.1 48.09-14.06Q48.09-16.36 47.31-17.19L47.31-17.19Q46.87-17.68 46.19-17.92 45.5-18.16 45.01-18.21 44.53-18.26 44.53-18.36L44.53-18.36Q44.53-19.78 44.82-19.82L44.82-19.82Q46.19-19.92 48.77-20.41 51.36-20.9 52.63-21.29L52.63-21.29Q52.68-21.29 52.85-21.34 53.02-21.39 53.02-21.39L53.02-21.39Q53.27-21.39 53.41-21.04 53.56-20.7 53.51-20.51L53.51-20.51Q53.12-17.38 53.12-16.31L53.12-16.31ZM69.57-21.58L69.57-21.58Q72.16-21.58 74.19-20.73 76.21-19.87 77.09-18.85L77.09-18.85Q77.09-17.19 76.53-16.09 75.97-14.99 74.85-14.99L74.85-14.99Q73.92-14.99 73.36-15.48 72.8-15.97 72.21-17.09L72.21-17.09Q71.09-19.34 68.94-19.34L68.94-19.34Q66.84-19.34 65.59-17.21 64.35-15.09 64.35-11.87L64.35-11.87Q64.35-7.47 66.15-5.35 67.96-3.22 70.74-3.22L70.74-3.22Q71.48-3.22 72.16-3.3 72.84-3.37 73.43-3.54 74.02-3.71 74.46-3.86 74.89-4 75.36-4.3 75.82-4.59 76.02-4.71 76.21-4.83 76.6-5.1 76.99-5.37 76.99-5.37L76.99-5.37Q77.09-5.32 77.24-5.08 77.39-4.83 77.39-4.59L77.39-4.59Q77.39-4.05 77.09-3.66L77.09-3.66Q76.36-2.34 74.21-1.03 72.06 0.29 69.43 0.29L69.43 0.29Q65.08 0.29 62.03-2.88 58.98-6.05 58.98-10.64L58.98-10.64Q58.98-15.09 61.91-18.33 64.84-21.58 69.57-21.58ZM88.37-2.83L88.37-2.83Q89.69-2.83 90.64-3.52 91.59-4.2 91.59-5.08L91.59-5.08 91.59-10.06Q91.25-9.91 90.15-9.57 89.05-9.23 88.47-8.98 87.88-8.74 87.1-8.3 86.32-7.86 85.95-7.23 85.59-6.59 85.59-5.86L85.59-5.86Q85.59-4.3 86.37-3.56 87.15-2.83 88.37-2.83ZM90.57-21.58L90.57-21.58Q93.59-21.58 95.11-20 96.62-18.41 96.62-14.55L96.62-14.55 96.62-4.93Q96.62-3.96 97.06-3.44 97.5-2.93 98.23-2.93L98.23-2.93Q98.96-2.93 99.89-3.56L99.89-3.56Q100.19-3.47 100.19-3.03L100.19-3.03Q100.19-2.05 99.89-1.56L99.89-1.56Q99.16-0.98 97.94-0.34 96.72 0.29 95.6 0.29L95.6 0.29Q94.47 0.29 93.4-0.54 92.32-1.37 91.98-2.34L91.98-2.34Q91.93-2.29 91.62-2.03 91.3-1.76 90.74-1.37 90.18-0.98 89.47-0.59 88.76-0.2 87.81 0.07 86.86 0.34 85.88 0.34L85.88 0.34Q83.44 0.34 81.9-1 80.36-2.34 80.36-4.69L80.36-4.69Q80.36-5.86 80.92-6.88 81.48-7.91 82.27-8.57 83.05-9.23 84.37-9.86 85.68-10.5 86.64-10.82 87.59-11.13 89.08-11.57 90.57-12.01 91.15-12.21L91.15-12.21Q91.59-12.4 91.59-12.99L91.59-12.99 91.59-15.67Q91.59-17.38 90.81-18.36 90.03-19.34 88.71-19.34L88.71-19.34Q87.25-19.34 86.42-18.43 85.59-17.53 85.59-15.87L85.59-15.87Q85.59-14.89 84.85-14.43 84.12-13.96 83.19-13.96L83.19-13.96Q81.39-13.96 80.65-15.14L80.65-15.14Q80.65-17.48 83.85-19.53 87.05-21.58 90.57-21.58ZM118.35-21.58L118.35-21.58Q120.2-21.58 121.52-20.63 122.84-19.68 123.47-18.16L123.47-18.16Q124.89-19.63 127.04-20.61 129.19-21.58 131.63-21.58L131.63-21.58Q133.39-21.58 134.63-20.8 135.88-20.02 136.58-18.63 137.29-17.24 137.61-15.6 137.93-13.96 137.93-12.06L137.93-12.06 137.93-6.93Q137.93-3.96 138.27-2.54L138.27-2.54Q138.37-2.2 139.59-1.83 140.81-1.46 141.25-1.46L141.25-1.46Q141.39-1.46 141.42-0.76 141.44-0.05 141.34 0.2L141.34 0.2Q141 0.15 138.78 0 136.56-0.15 135.44-0.15L135.44-0.15Q134.26-0.15 132.09 0 129.92 0.15 129.48 0.2L129.48 0.2Q129.33 0 129.33-0.73 129.33-1.46 129.48-1.46L129.48-1.46Q130.07-1.46 131.24-1.83 132.41-2.2 132.51-2.54L132.51-2.54Q132.85-4 132.85-5.96L132.85-5.96 132.85-10.94Q132.85-18.02 128.31-18.02L128.31-18.02Q126.7-18.02 125.62-17.24 124.55-16.46 124.35-15.72L124.35-15.72Q124.35-15.58 124.33-15.33 124.3-15.09 124.35-14.94L124.35-14.94Q124.5-13.87 124.5-11.91L124.5-11.91 124.5-6.74Q124.5-3.96 124.84-2.54L124.84-2.54Q124.94-2.2 126.16-1.83 127.38-1.46 127.82-1.46L127.82-1.46Q127.97-1.46 127.99-0.76 128.01-0.05 127.92 0.2L127.92 0.2Q127.58 0.15 125.35 0 123.13-0.15 122.01-0.15L122.01-0.15Q120.84-0.15 118.66 0 116.49 0.15 116.05 0.2L116.05 0.2Q115.91 0 115.91-0.73 115.91-1.46 116.05-1.46L116.05-1.46Q116.64-1.46 117.81-1.83 118.98-2.2 119.08-2.54L119.08-2.54Q119.42-4 119.42-6.1L119.42-6.1 119.42-10.79Q119.42-14.6 118.3-16.31 117.18-18.02 114.98-18.02L114.98-18.02Q113.51-18.02 112.29-17.19 111.07-16.36 111.07-15.33L111.07-15.33 111.07-6.93Q111.07-3.96 111.46-2.54L111.46-2.54Q111.56-2.2 112.73-1.83 113.9-1.46 114.34-1.46L114.34-1.46Q114.54-1.46 114.56-0.76 114.59-0.05 114.49 0.2L114.49 0.2Q114.1 0.15 111.93 0 109.75-0.15 108.63-0.15L108.63-0.15Q107.41-0.15 105.21 0 103.01 0.15 102.62 0.2L102.62 0.2Q102.43 0 102.43-0.73 102.43-1.46 102.62-1.46L102.62-1.46Q103.16-1.46 104.38-1.83 105.6-2.2 105.7-2.54L105.7-2.54Q106.04-4 106.04-6.1L106.04-6.1 106.04-14.06Q106.04-16.36 105.26-17.19L105.26-17.19Q104.87-17.68 104.16-17.92 103.45-18.16 102.97-18.21 102.48-18.26 102.48-18.36L102.48-18.36Q102.48-19.78 102.77-19.82L102.77-19.82Q105.02-20.02 110.58-21.29L110.58-21.29Q110.63-21.34 110.73-21.36 110.83-21.39 110.9-21.39 110.97-21.39 110.97-21.39L110.97-21.39Q111.22-21.39 111.36-21.04 111.51-20.7 111.46-20.51L111.46-20.51Q111.27-19.14 111.27-18.75L111.27-18.75Q111.27-18.55 111.36-18.51L111.36-18.51Q111.41-18.51 111.61-18.65L111.61-18.65Q112.78-19.82 114.61-20.7 116.44-21.58 118.35-21.58ZM161.36-32.23L161.36-32.23 171.62-6.64Q172.35-4.69 173.08-3.08L173.08-3.08Q173.37-2.34 174.64-1.9 175.91-1.46 176.5-1.46L176.5-1.46Q176.69-1.46 176.69-0.59L176.69-0.59Q176.69 0 176.6 0.15L176.6 0.15Q170.74-0.15 170.44-0.15L170.44-0.15Q170.1-0.15 164.1 0.15L164.1 0.15Q163.9-0.05 163.9-0.76 163.9-1.46 164.1-1.46L164.1-1.46Q164.68-1.46 165.71-1.76 166.73-2.05 166.93-2.44L166.93-2.44Q167.07-2.73 167.07-3.08L167.07-3.08Q167.07-4.05 166.15-6.45L166.15-6.45 164.44-10.99Q164.24-11.18 164.1-11.18L164.1-11.18Q162.53-11.28 159.9-11.28 157.26-11.28 154.33-11.13L154.33-11.13Q154.04-11.13 154.04-10.94L154.04-10.94 152.18-6.4Q151.25-3.86 151.25-3.22 151.25-2.59 151.79-2.25L151.79-2.25Q152.23-1.95 153.33-1.71 154.43-1.46 154.82-1.46L154.82-1.46Q154.97-1.42 154.97-0.78 154.97-0.15 154.87 0.15L154.87 0.15Q154.62 0.15 152.57 0 150.52-0.15 149.25-0.15 147.98-0.15 146.25-0.02 144.52 0.1 143.78 0.15L143.78 0.15Q143.59-0.05 143.59-0.59L143.59-0.59Q143.59-1.46 143.69-1.46L143.69-1.46Q144.27-1.46 145.57-1.88 146.86-2.29 147.2-2.83L147.2-2.83Q148.13-4.3 149.06-6.64L149.06-6.64 158.14-28.61Q159.26-31.54 159.95-32.13L159.95-32.13Q160.34-32.47 160.78-32.47L160.78-32.47Q161.12-32.47 161.36-32.23ZM155.5-14.06L155.5-14.06Q157.21-13.92 159.02-13.92L159.02-13.92Q160.73-13.92 163.02-14.06L163.02-14.06 163.12-14.26 159.41-24.02 155.4-14.26Q155.4-14.06 155.5-14.06ZM183.14-27.37Q182.26-28.27 182.26-29.52 182.26-30.76 183.14-31.64 184.02-32.52 185.29-32.52 186.55-32.52 187.43-31.64 188.31-30.76 188.31-29.52 188.31-28.27 187.43-27.37 186.55-26.46 185.29-26.46 184.02-26.46 183.14-27.37ZM188.21-16.31L188.21-6.93Q188.21-3.96 188.61-2.54L188.61-2.54Q188.7-2.2 189.92-1.83 191.14-1.46 191.58-1.46L191.58-1.46Q191.78-1.46 191.8-0.76 191.83-0.05 191.73 0.2L191.73 0.2Q191.39 0.15 189.12 0 186.85-0.15 185.77-0.15L185.77-0.15Q184.55-0.15 182.33 0 180.11 0.15 179.77 0.2L179.77 0.2Q179.57 0 179.57-0.73 179.57-1.46 179.77-1.46L179.77-1.46Q180.3-1.46 181.53-1.83 182.75-2.2 182.84-2.54L182.84-2.54Q183.19-4 183.19-6.1L183.19-6.1 183.19-14.06Q183.19-16.36 182.4-17.19L182.4-17.19Q181.96-17.68 181.28-17.92 180.6-18.16 180.11-18.21 179.62-18.26 179.62-18.36L179.62-18.36Q179.62-19.78 179.91-19.82L179.91-19.82Q181.28-19.92 183.87-20.41 186.46-20.9 187.73-21.29L187.73-21.29Q187.78-21.29 187.95-21.34 188.12-21.39 188.12-21.39L188.12-21.39Q188.36-21.39 188.51-21.04 188.65-20.7 188.61-20.51L188.61-20.51Q188.21-17.38 188.21-16.31L188.21-16.31Z" opacity="1" transform="matrix(1,0,0,1,0,0)" fill="#163020" class="wordmark-text-0" data-fill-palette-color="primary" id="text-0"></path></svg></g></svg></g></svg></g></svg></g><g><svg viewBox="0 0 224.28594312533997 179.6274562394301" height="179.6274562394301" width="224.28594312533997"><g><svg xmlns="http://www.w3.org/2000/svg" xmlns:xlink="http://www.w3.org/1999/xlink" version="1.1" x="0" y="0" viewBox="33.99992249322431 84 451.99944992346155 362" enable-background="new 0 0 512 512" xml:space="preserve" height="179.6274562394301" width="224.28594312533997" class="icon-icon-0" data-fill-palette-color="accent" id="icon-0"><g fill="#304d30" data-fill-palette-color="accent"><g fill="#304d30" data-fill-palette-color="accent"><g fill="#304d30" data-fill-palette-color="accent"><path d="M250 446h-90c-3.313 0-6-2.687-6-6v-40c0-3.313 2.687-6 6-6h90c3.313 0 6 2.687 6 6v40C256 443.313 253.313 446 250 446zM166 434h78v-28h-78V434z" fill="#304d30" data-fill-palette-color="accent"></path></g><g fill="#304d30" data-fill-palette-color="accent"><path d="M120 446H40c-1.826 0-3.553-0.832-4.691-2.26-1.139-1.428-1.565-3.297-1.158-5.077l80-350C114.774 85.935 117.201 84 120 84h40c3.313 0 6 2.687 6 6v194.443c0 0.504-0.063 1.006-0.189 1.494l-40 155.557C125.129 444.146 122.738 446 120 446zM47.526 434h67.821L154 283.685V96h-29.217L47.526 434z" fill="#304d30" data-fill-palette-color="accent"></path></g><g fill="#304d30" data-fill-palette-color="accent"><path d="M250 446h-90c-3.313 0-6-2.687-6-6V90c0-3.313 2.687-6 6-6h90c3.313 0 6 2.687 6 6v350C256 443.313 253.313 446 250 446zM166 434h78V96h-78V434z" fill="#304d30" data-fill-palette-color="accent"></path></g><g fill="#304d30" data-fill-palette-color="accent"><path d="M120 446H40c-1.848 0-3.592-0.852-4.729-2.308-1.137-1.456-1.54-3.355-1.092-5.147l10-40C44.847 395.874 47.247 394 50 394h80c1.848 0 3.592 0.852 4.729 2.308 1.137 1.456 1.54 3.355 1.092 5.147l-10 40C125.153 444.126 122.753 446 120 446zM47.685 434h67.631l7-28H54.685L47.685 434z" fill="#304d30" data-fill-palette-color="accent"></path></g><g fill="#304d30" data-fill-palette-color="accent"><path d="M340 446h-90c-3.313 0-6-2.687-6-6V90c0-3.313 2.687-6 6-6h90c3.313 0 6 2.687 6 6v350C346 443.313 343.313 446 340 446zM256 434h78V96h-78V434z" fill="#304d30" data-fill-palette-color="accent"></path></g><g fill="#304d30" data-fill-palette-color="accent"><path d="M340 446h-90c-3.313 0-6-2.687-6-6v-40c0-3.313 2.687-6 6-6h90c3.313 0 6 2.687 6 6v40C346 443.313 343.313 446 340 446zM256 434h78v-28h-78V434z" fill="#304d30" data-fill-palette-color="accent"></path></g><g fill="#304d30" data-fill-palette-color="accent"><path d="M430 446h-90c-1.739 0-3.394-0.755-4.532-2.068-1.14-1.314-1.653-3.059-1.407-4.78l50-350C384.482 86.196 387.014 84 390 84h90c1.739 0 3.394 0.755 4.532 2.069 1.14 1.314 1.653 3.058 1.407 4.78l-50 350C435.518 443.805 432.986 446 430 446zM346.918 434h77.878l48.286-338h-77.878L346.918 434z" fill="#304d30" data-fill-palette-color="accent"></path></g><g fill="#304d30" data-fill-palette-color="accent"><path d="M430 446h-90c-3.313 0-6-2.687-6-6v-40c0-3.313 2.687-6 6-6h90c3.313 0 6 2.687 6 6v40C436 443.313 433.313 446 430 446zM346 434h78v-28h-78V434z" fill="#304d30" data-fill-palette-color="accent"></path></g><g fill="#304d30" data-fill-palette-color="accent"><path d="M340 226H200c-3.313 0-6-2.687-6-6v-50c0-3.313 2.687-6 6-6h140c3.313 0 6 2.687 6 6v50C346 223.313 343.313 226 340 226zM206 214h128v-38H206V214z" fill="#304d30" data-fill-palette-color="accent"></path></g><g fill="#304d30" data-fill-palette-color="accent"><path d="M470 136h-80c-3.313 0-6-2.687-6-6s2.687-6 6-6h80c3.313 0 6 2.687 6 6S473.313 136 470 136z" fill="#304d30" data-fill-palette-color="accent"></path></g><rect x="190" y="250" width="20" height="20" fill="#304d30" data-fill-palette-color="accent"></rect><rect x="190" y="280" width="20" height="20" fill="#304d30" data-fill-palette-color="accent"></rect><rect x="290" y="310" width="20" height="20" fill="#304d30" data-fill-palette-color="accent"></rect><rect x="290" y="340" width="20" height="20" fill="#304d30" data-fill-palette-color="accent"></rect><rect x="190" y="310" width="20" height="20" fill="#304d30" data-fill-palette-color="accent"></rect></g></g></svg></g></svg></g></svg></g><defs></defs></svg><rect width="395.52" height="111.70729246867738" fill="none" stroke="none" visibility="hidden"></rect></g></svg></g></svg>